<svg width="1440" height="140" viewBox="0 0 1440 140" fill="none" xmlns="http://www.w3.org/2000/svg">
<mask id="mask0_3_9" style="mask-type:alpha" maskUnits="userSpaceOnUse" x="0" y="0" width="1440" height="140">
<rect width="1440" height="140" fill="#D9D9D9"/>
</mask>
<g mask="url(#mask0_3_9)">
<path d="M0 0L30 21.3C60 43 120 85 180 85.3C240 85 300 43 360 37.3C420 32 480 64 540 85.3C600 107 660 117 720 128C780 139 840 149 900 122.7C960 96 1020 32 1080 10.7C1140 -11 1200 11 1260 21.3C1320 32 1380 32 1410 32H1440V192H1410C1380 192 1320 192 1260 192C1200 192 1140 192 1080 192C1020 192 960 192 900 192C840 192 780 192 720 192C660 192 600 192 540 192C480 192 420 192 360 192C300 192 240 192 180 192C120 192 60 192 30 192H0V0Z" fill="#6886C5"/>
</g>
</svg>
